PathFileType	4	(x/y/z)	S01_P20_T04
DataRate	CameraRate	NumFrames	NumMarkers	Units	OrigDataRate	OrigDataStartFrame	OrigNumFrames
240	240	4	51	mm	240	356	406
Frame#	Time	Sternum			R.Acromium			L.Acromium			Top.Head			R.ASIS			L.ASIS			R.PSIS			L.PSIS			R.Great.Tro			L.Great.Tro			R.Iliac.Crest			L.Iliac.Crest			V.Sacral			R.Thigh.Upper.Post			R.Thigh.Lower.Ant			R.Thigh.Lower.Post			R.Thigh.Upper.Ant			R.Knee.Lat			R.Knee.Med			R.Shank.Upper.Post			R.Shank.Lower.Ant			R.Shank.Lower.Post			R.Shank.Upper.Ant			R.Ankle.Lat			R.Ankle.Med			R.Heel.Upper			R.Heel.Med			R.Heel.Lat			R.Toe.Lat			R.Toe.Med			R.Toe.Tip			L.Thigh.Upper.Post			L.Thigh.Lower.Ant			L.Thigh.Lower.Post			L.Thigh.Upper.Ant			L.Knee.Lat			L.Knee.Med			L.Shank.Upper.Post			L.Shank.Lower.Ant			L.Shank.Lower.Post			L.Shank.Upper.Ant			L.Ankle.Lat			L.Ankle.Med			L.Heel.Upper			L.Heel.Med			L.Heel.Lat			L.Toe.Lat			L.Toe.Med			L.Toe.Tip			Cervical.Spine			Back			
		X1	Y1	Z1	X2	Y2	Z2	X3	Y3	Z3	X4	Y4	Z4	X5	Y5	Z5	X6	Y6	Z6	X7	Y7	Z7	X8	Y8	Z8	X9	Y9	Z9	X10	Y10	Z10	X11	Y11	Z11	X12	Y12	Z12	X13	Y13	Z13	X14	Y14	Z14	X15	Y15	Z15	X16	Y16	Z16	X17	Y17	Z17	X18	Y18	Z18	X19	Y19	Z19	X20	Y20	Z20	X21	Y21	Z21	X22	Y22	Z22	X23	Y23	Z23	X24	Y24	Z24	X25	Y25	Z25	X26	Y26	Z26	X27	Y27	Z27	X28	Y28	Z28	X29	Y29	Z29	X30	Y30	Z30	X31	Y31	Z31	X32	Y32	Z32	X33	Y33	Z33	X34	Y34	Z34	X35	Y35	Z35	X36	Y36	Z36	X37	Y37	Z37	X38	Y38	Z38	X39	Y39	Z39	X40	Y40	Z40	X41	Y41	Z41	X42	Y42	Z42	X43	Y43	Z43	X44	Y44	Z44	X45	Y45	Z45	X46	Y46	Z46	X47	Y47	Z47	X48	Y48	Z48	X49	Y49	Z49	X50	Y50	Z50	X51	Y51	Z51	

356	1.4792	578.9	1259.6	278.4	458.95	1514.3	449.19	458.87	1528.9	119.05	448.37	1840.7	284.15	521.87	1015.9	430.32	533.98	1003.7	162.37	290.93	1061.6	329.44	291.77	1062.2	226.03	444.69	969.88	511.97	420.79	960.91	81.429	431.05	1116.1	490.35	430.4	1089.9	84.587	276.52	1026.3	275.19	535.76	672.54	494.73	626.63	632.49	465.85	569.45	592.96	469.52	595.05	714.85	488.57	618.65	547.31	462.3	620.76	547.23	316.18	612.68	380.44	483.83	696.44	319.26	445.18	629.57	312.02	472.53	675.43	388.15	461.97	697.7	115.46	439.07	728.69	132.7	348.62	646.57	62.211	377.25	671.33	40.234	348.77	664.71	36.153	412.76	843.17	86.328	477.89	874.55	108.83	359.53	922.8	150.44	416.43	333.73	697.05	103	400.82	609.6	106.76	323.02	607.93	120.41	404.61	703.66	89.83	344.28	511.67	114.04	370.05	508.02	256.13	244.55	398.93	95.345	271.64	293.5	117.85	218.86	325.32	97.96	298.15	365.41	110.42	131.36	122.1	137.71	159.5	130.52	232.07	55.781	98.927	182.32	62.474	72.316	215.69	61.856	72.192	153.33	266.52	36.585	115.59	292.49	45.546	237.91	355.33	49.914	186.95	370.78	1580.2	284.38	279.82	1267.2	292.53
357	1.4833	584.83	1258.5	278.99	465.03	1513.1	450.08	464.52	1527.7	119.93	454.29	1839.5	285.06	528.24	1014.9	430.7	539.94	1002.7	162.7	297.02	1060.2	330.37	297.71	1060.8	226.93	451.33	968.65	512.47	426.62	959.86	82.051	437.38	1114.8	491.05	436.01	1088.7	85.218	282.66	1024.8	276.12	543.07	671.86	494.76	633.85	631.91	465.38	576.78	592.29	469.58	602.27	714.24	488.27	625.75	546.44	462.22	627.33	546.52	316.24	619.46	379.48	483.7	702.98	318.15	444.81	636.18	311.05	472.35	682.15	387.06	461.68	703.7	114.65	438.74	734.43	131.58	348.17	652.16	61.811	377.08	676.65	39.613	348.56	670.23	35.745	412.6	849.03	84.984	477.07	880.12	107.22	358.55	928.71	148.64	415.26	339.79	695.9	103.52	406.94	608.48	106.92	329.19	606.75	120.83	410.65	702.59	90.127	350.31	510.64	114.14	376.47	506.71	256.23	249.34	399.16	95.494	275.09	293.38	117.85	222.71	325.9	98.056	302.52	364.95	110.47	132.64	123.68	137.72	160.91	131.92	232.02	56.78	101.45	182.36	63.204	74.85	215.76	62.545	74.61	153.41	266.57	36.563	115.64	292.65	45.461	237.94	355.5	49.587	186.96	376.59	1579.1	285.4	285.72	1266	293.5
358	1.4875	590.78	1257.4	279.58	471.11	1511.8	451	470.15	1526.6	120.84	460.2	1838.4	286	534.64	1013.8	431.11	545.93	1001.8	163.05	303.14	1058.8	331.31	303.67	1059.4	227.85	458.01	967.47	512.98	432.52	958.82	82.705	443.73	1113.5	491.77	441.62	1087.6	85.863	288.84	1023.4	277.07	550.46	671.24	494.75	641.16	631.36	464.9	584.19	591.67	469.63	609.58	713.69	487.96	632.9	545.57	462.14	634.01	545.85	316.34	626.1	378.54	483.53	709.29	316.95	444.42	642.55	310.07	472.12	688.74	385.91	461.35	709.15	113.82	438.37	739.68	130.37	347.67	657.14	61.522	376.84	681.31	39.049	348.3	675.06	35.417	412.38	854.25	83.351	476.24	885.13	105.24	357.57	934.12	146.37	414.09	345.98	694.73	104.06	413.23	607.38	107.03	335.53	605.54	121.24	416.8	701.54	90.402	356.55	509.6	114.21	383.12	505.36	256.26	254.31	399.45	95.612	278.71	293.32	117.81	226.74	326.54	98.125	307.06	364.52	110.48	134.06	125.4	137.71	162.46	133.44	231.94	57.92	104.19	182.38	64.05	77.623	215.83	63.34	77.245	153.49	266.63	36.551	115.68	292.8	45.395	237.98	355.68	49.253	186.96	382.39	1577.9	286.45	291.63	1264.7	294.49
359	1.4917	596.73	1256.4	280.2	477.19	1510.6	451.96	475.77	1525.4	121.77	466.11	1837.3	286.98	541.07	1012.9	431.54	551.96	1000.9	163.43	309.28	1057.4	332.27	309.66	1058	228.79	464.73	966.33	513.5	438.49	957.8	83.389	450.08	1112.3	492.52	447.25	1086.5	86.52	295.06	1021.9	278.04	557.92	670.67	494.71	648.52	630.86	464.43	591.65	591.1	469.66	616.97	713.18	487.64	640.1	544.72	462.06	640.78	545.22	316.46	632.6	377.61	483.32	715.39	315.68	443.99	648.71	309.11	471.86	695.19	384.71	460.99	714.1	112.97	437.96	744.48	129.07	347.15	661.55	61.347	376.55	685.35	38.548	348.01	679.25	35.174	412.11	858.88	81.45	475.41	889.62	102.91	356.6	939.07	143.65	412.95	352.3	693.54	104.62	419.67	606.27	107.09	342.04	604.3	121.64	423.08	700.5	90.653	363	508.56	114.22	390.02	503.99	256.23	259.5	399.78	95.698	282.49	293.32	117.72	230.96	327.26	98.165	311.8	364.13	110.43	135.63	127.27	137.67	164.18	135.09	231.82	59.219	107.18	182.39	65.032	80.647	215.88	64.258	80.111	153.55	266.68	36.552	115.71	292.96	45.35	238.01	355.85	48.907	186.95	388.18	1576.8	287.53	297.54	1263.5	295.52
